# xmcd CD database file
#
# Track frame offsets:
#	150
#	11555
#	24210
#	33160
#	47390
#	60812
#	73427
#
# Disc length: 1157 seconds
#
# Revision: 0
# Processed by: cddbd v1.4PL0 Copyright (c) Steve Scherf et al.
# Submitted via: Feurio! 1.66 - http://www.feurio.com
#
DISCID=49048307
DTITLE=Carl Perkins - Folsom Prison Blues
DYEAR=2000
DGENRE=Country
TTITLE0=Folsom Prison Blues
TTITLE1=That's Right
TTITLE2=All Mama's Children
TTITLE3=I Still Miss Someone
TTITLE4=Going To Memphis
TTITLE5=That's Right
TTITLE6=Going To Memphis
EXTD=
EXTT0=
EXTT1=
EXTT2=
EXTT3=
EXTT4=
EXTT5=
EXTT6=
PLAYORDER=
